# xmcd CD database file
#
# Track frame offsets:
#	150
#	10655
#	21990
#	34517
#	46725
#	61635
#	72947
#	86775
#	98895
#	110695
#	123640
#	138812
#	151732
#	163915
#	175737
#	188482
#	202572
#	216662
#	228712
#	240592
#	252782
#	266175
#
# Disc length: 3706 seconds
#
# Revision: 0
# Processed by: cddbd v1.5.2PL0 Copyright (c) Steve Scherf et al.
# Submitted via: CDex 1.51
#
DISCID=260e7816
DTITLE=Louis Jordan and his Tympany Five - The Entertainers - with Louis Armstrong and Ella Fitzgerald
DYEAR=1995
DGENRE=Jazz
TTITLE0=Sunday
TTITLE1=Sweet Lorraine
TTITLE2=Choo Choo Ch Boogie
TTITLE3=Caldonia
TTITLE4=Life is so Peculiar
TTITLE5=Ooo Wee
TTITLE6=You Rascal You
TTITLE7=Messy Bessy
TTITLE8=Saturday Night Fish Fry
TTITLE9=I Never Had a Chance
TTITLE10=I'm Gonna Move to the Outskirts of Town
TTITLE11=Knock Me a Kiss
TTITLE12=Let the Good Times Roll
TTITLE13=If I Had any Sense I'd Go Back Home
TTITLE14=For You
TTITLE15=Private Property (No Tresspassing)
TTITLE16=I'll Die Happy
TTITLE17=Petootie Pie
TTITLE18=Hurry Home
TTITLE19=Baby it's Cold Outside
TTITLE20=Till We Two Are One
TTITLE21=Dad Gum Ya Hide, Boy
EXTD=YEAR: 1995
EXTT0=
EXTT1=
EXTT2=
EXTT3=
EXTT4=
EXTT5=
EXTT6=
EXTT7=
EXTT8=
EXTT9=
EXTT10=
EXTT11=
EXTT12=
EXTT13=
EXTT14=
EXTT15=
EXTT16=
EXTT17=
EXTT18=
EXTT19=
EXTT20=
EXTT21=
PLAYORDER=
